<?xml version="1.0" encoding="utf-8"?>
<!-- Generator: Adobe Illustrator 16.0.0, SVG Export Plug-In . SVG Version: 6.00 Build 0)  -->
<!DOCTYPE svg PUBLIC "-//W3C//DTD SVG 1.1//EN" "http://www.w3.org/Graphics/SVG/1.1/DTD/svg11.dtd">
<svg version="1.1" id="sec_polygons" xmlns="http://www.w3.org/2000/svg" xmlns:xlink="http://www.w3.org/1999/xlink" x="0px"
	 y="0px" width="1024px" height="768px" viewBox="0 0 1024 768" enable-background="new 0 0 1024 768" xml:space="preserve">
<g id="sections">
	<path id="FOUNDERS_SUITES" fill="#666666" stroke="#FFFFFF" stroke-width="1.6995" stroke-miterlimit="10" d="M340.107,207.111
		l11.518-5.542l15.866-3.695l16.626-2.607l17.712-1.086H603.3l17.388,0.76l14.345,2.608l12.604,3.695l12.933,4.455l14.343,6.194
		l10.759,5.542l10.323,6.737l12.279,8.042l10.323,7.498l8.477,7.716l8.149,9.236l5.108,5.216l9.998,12.931l8.148,11.736
		l6.521,11.845l5.759,13.801l8.26,23.255l20.755-5.868l-8.693-25.32l-14.562-28.253l-14.128-23.581l-5.433-5.434l-24.993-23.038
		l-27.818-21.19l-6.194-4.347l-28.472-12.932l-26.624-9.345l-28.47-4.347h-33.36H426.933l-39.012,0.652l-33.47,4.999l-30.208,10.106
		l10.323,22.494L340.107,207.111"/>
	<path id="FOUNDERS_SUITES_1_" fill="#666666" stroke="#FFFFFF" stroke-width="1.6995" stroke-miterlimit="10" d="M706.426,565.715
		l25.754-18.582l23.363-23.363l5.108-5.107l16.626-23.906l13.801-28.256l7.932-24.667l-19.559-6.52l-3.586,8.042l-11.628,31.839
		l-15.975,26.08l-10.105,11.628l-18.147,18.039l-28.905,20.32l-29.016,13.04l-45.64,9.455H383.9l-44.228-11.628l-9.345,18.799
		l-6.52,12.281l10.215,4.563l10.323,3.695l23.798,6.629l19.126,1.304h216.792l0,0l26.624-4.129l27.601-7.933l53.683-22.169
		L706.426,565.715"/>
	<path id="_x32_25_1_" fill="#666666" stroke="#FFFFFF" stroke-width="1.6995" stroke-miterlimit="10" d="M461.5,679.12v90.313
		h76.678l2.306-90.313H461.5z"/>
	<path id="_x32_26_1_" fill="#666666" stroke="#FFFFFF" stroke-width="1.6995" stroke-miterlimit="10" d="M425.315,679.12
		c0,0-21.125-0.427-31.359-1.222l-4.692,91.14c5.737,0.255,17.304,0.396,17.304,0.396h54.934V679.12H425.315z"/>
	<path id="_x32_11_1_" fill="#666666" stroke="#FFFFFF" stroke-width="1.6995" stroke-miterlimit="10" d="M672.825,104.042
		l24.436-90.361C662.87,2.887,611.966,0.453,611.966,0.453l-3.991,91.807C607.975,92.261,650.14,95.975,672.825,104.042z"/>
	<path id="_x32_09_1_" fill="#666666" stroke="#FFFFFF" stroke-width="1.6995" stroke-miterlimit="10" d="M461.087,0.105h79.69
		v90.961h-79.69V0.105z"/>
	<path id="_x32_08_1_" fill="#666666" stroke="#FFFFFF" stroke-width="1.6995" stroke-miterlimit="10" d="M425.316,91.065h35.773
		V0.105h-54.521c0,0-12.469,0.149-18.647,0.445l7.791,91.69L425.316,91.065z"/>
	<path id="_x32_13_1_" fill="#666666" stroke="#FFFFFF" stroke-width="1.6995" stroke-miterlimit="10" d="M793.265,170.14
		l61.479-69.677c0,0-27.793-26.176-68.047-49.626l-47.23,80.968C739.467,131.804,771.835,150.4,793.265,170.14z"/>
	<path id="_x32_12_1_" fill="#666666" stroke="#FFFFFF" stroke-width="1.6995" stroke-miterlimit="10" d="M739.464,131.804
		l47.231-80.968c-27.813-15.949-57.81-28.519-89.429-37.159l-24.436,90.362C696.635,110.893,718.92,120.283,739.464,131.804z"/>
	<path id="_x32_10_1_" fill="#666666" stroke="#FFFFFF" stroke-width="1.6995" stroke-miterlimit="10" d="M579.13,91.065
		c0,0,19.4,0.419,28.851,1.192l3.992-91.807c-5.416-0.226-16.332-0.346-16.332-0.346h-54.861v90.961L579.13,91.065L579.13,91.065z"
		/>
	<path id="_x32_07_1_" fill="#666666" stroke="#FFFFFF" stroke-width="1.6995" stroke-miterlimit="10" d="M395.708,92.237
		l-7.79-91.691c0,0-45.144,1.837-82.785,13.091l23.635,90.35C351.774,96.306,395.708,92.237,395.708,92.237z"/>
	<path id="_x31_13_1_" fill="#666666" stroke="#FFFFFF" stroke-width="1.6995" stroke-miterlimit="10" d="M630.974,470.044h-55.649
		v103.713h41.159l45.641-9.419l5.339-2.403l-21.493-55.991L630.974,470.044z"/>
	<path id="_x31_11_1_" fill="#666666" stroke="#FFFFFF" stroke-width="1.6995" stroke-miterlimit="10" d="M651.425,414.604
		l9.543,5.907l-8.636,14.086l18.633,16.814l70.056,58.26l7.315-8.362l15.938-26.08l11.592-31.875l3.621-7.968l-123.064-36.232
		L651.425,414.604z"/>
	<path id="_x31_07_1_" fill="#666666" stroke="#FFFFFF" stroke-width="1.6995" stroke-miterlimit="10" d="M630.064,300.092
		l15.449-37.261l22.776-53.769l-7.687-3.35l-12.935-4.435l-12.565-3.695l-14.411-2.587l-17.37-0.74h-27.998v105.836H630.064z"/>
	<path id="_x31_08_1_" fill="#666666" stroke="#FFFFFF" stroke-width="1.6995" stroke-miterlimit="10" d="M667.158,275.802
		l-21.646,38.376l14.997,14.997l79.521-67.683l-4.783-4.784l-8.129-9.238l-8.499-7.761l-10.349-7.391l-12.193-8.131l-10.347-6.651
		l-10.718-5.543l-6.724-2.932l-22.776,53.769L667.158,275.802z"/>
	<path id="_x31_06_1_" fill="#666666" stroke="#FFFFFF" stroke-width="1.6995" stroke-miterlimit="10" d="M500.849,194.256h74.474
		v105.836h-74.474V194.256z"/>
	<path id="_x31_10_1_" fill="#666666" stroke="#FFFFFF" stroke-width="1.6995" stroke-miterlimit="10" d="M807.393,397.155v-24.543
		l-2.128-20.128l-2.153-12.569l-3.34-10.301l-142.895,40.911l0.456,13.633l-0.911,14.995l123.064,36.231l19.561,6.519l6.493-24.371
		L807.393,397.155z"/>
	<path id="_x31_12_1_" fill="#666666" stroke="#FFFFFF" stroke-width="1.6995" stroke-miterlimit="10" d="M671.869,492.762
		l-25.9,13.178l21.493,55.992l23.639-10.636l28.979-20.285l18.111-18.111l2.826-3.229l-70.057-58.26l-10.811-9.756l-13.063,13.138
		L671.869,492.762z"/>
	<path id="_x31_01_1_" fill="#666666" stroke="#FFFFFF" stroke-width="1.6995" stroke-miterlimit="10" d="M249.527,384.923
		c0-12.566,1.326-24.758,3.797-36.397l-133.088-32.784c-7.719,22.047-7.859,69.356-7.859,69.356c0,32.89,7.842,70.188,7.842,70.188
		l133.274-33.19C250.917,410.221,249.527,397.769,249.527,384.923z"/>
	<path id="_x31_18_1_" fill="#666666" stroke="#FFFFFF" stroke-width="1.6995" stroke-miterlimit="10" d="M253.493,422.095
		l-133.274,33.19c0,0,15.291,70.658,60.314,120.537l61.407-51.329l42.823-36.429C269.94,470.019,258.984,447.387,253.493,422.095z"
		/>
	<path id="_x31_10A_1_" fill="#666666" stroke="#FFFFFF" stroke-width="1.6995" stroke-miterlimit="10" d="M887.842,337.475
		l-82.577,15.009l2.128,20.128v24.543l-1.853,20.376l82.39,15.171c0,0,4.14-31.649,4.14-47.607
		C892.069,385.095,890.622,353.152,887.842,337.475z"/>
	<path id="_x31_16_1_" fill="#666666" stroke="#FFFFFF" stroke-width="1.6995" stroke-miterlimit="10" d="M424.29,573.757V470.044
		h-54.148l-14.995,36.353l-15.403,55.769l44.191,11.592H424.29z"/>
	<path id="_x31_11A_1_" fill="#666666" stroke="#FFFFFF" stroke-width="1.6995" stroke-miterlimit="10" d="M777.311,494.787
		l-16.662,23.906l-5.072,5.072l59.934,55.807c0,0,56.794-56.335,72.418-146.871l-82.391-15.171l-6.492,24.372l-7.971,24.631
		L777.311,494.787z"/>
	<path id="_x31_09_1_" fill="#666666" stroke="#FFFFFF" stroke-width="1.6995" stroke-miterlimit="10" d="M770.79,312.229
		l-5.796-13.764l-6.466-11.821l-8.128-11.825l-9.98-12.935l-0.391-0.39l-79.521,67.683l-7.497,7.498l10.903,15.824l-9.541,4.624
		l2.499,13.405l122.195-34.985L770.79,312.229z"/>
	<path id="_x31_02_1_" fill="#666666" stroke="#FFFFFF" stroke-width="1.6995" stroke-miterlimit="10" d="M285.406,281.02
		l-44.446-37.958l-2.374,2.564l-53.264-49.614c-0.759-0.86-1.517-1.661-2.271-2.407c-48.97,52.944-62.811,122.138-62.811,122.138
		l133.089,32.784C258.839,322.56,270.108,299.37,285.406,281.02z"/>
	<path id="_x31_17_1_" fill="#666666" stroke="#FFFFFF" stroke-width="1.6995" stroke-miterlimit="10" d="M284.767,488.061
		l-42.824,36.429l28.616,28.617l48.176,27.89h11.591l9.418-18.834l15.403-55.768l-25.901-14.542L312.5,513.392
		C302.261,506.561,292.931,498.002,284.767,488.061z"/>
	<path id="_x31_05_1_" fill="#666666" stroke="#FFFFFF" stroke-width="1.6995" stroke-miterlimit="10" d="M424.292,194.256h76.561
		v105.836h-76.561V194.256z"/>
	<path id="_x31_03_1_" fill="#666666" stroke="#FFFFFF" stroke-width="1.6995" stroke-miterlimit="10" d="M312.803,256.249
		l15.99,21.575l26.811-14.086l-20.936-53.592l-10.74-22.365l-29.172,13.127L274.8,213.471l-26.977,22.172l-6.865,7.413
		l44.445,37.958C293.499,271.305,302.709,262.938,312.803,256.249z"/>
	<path id="_x31_15_1_" fill="#666666" stroke="#FFFFFF" stroke-width="1.6995" stroke-miterlimit="10" d="M424.292,470.044h76.561
		v103.713h-76.561V470.044z"/>
	<path id="_x31_04_1_" fill="#666666" stroke="#FFFFFF" stroke-width="1.6995" stroke-miterlimit="10" d="M369.685,300.092h54.603
		V194.256h-22.367l-17.739,1.109l-16.629,2.586l-15.89,3.695l-11.457,5.543l-5.542,2.958l20.935,53.592L369.685,300.092z"/>
	<path id="_x31_14_1_" fill="#666666" stroke="#FFFFFF" stroke-width="1.6995" stroke-miterlimit="10" d="M500.849,470.044h74.474
		v103.713h-74.474V470.044z"/>
	<path id="_x31_09A_1_" fill="#666666" stroke="#FFFFFF" stroke-width="1.6995" stroke-miterlimit="10" d="M776.59,276.003
		l14.488,28.253l8.691,25.356l3.34,10.3l2.152,12.569l82.576-15.009c0,0-11.513-79.754-69.719-142.462l-61.092,52.013l5.433,5.434
		L776.59,276.003z"/>
	<path id="C-E" fill="#666666" stroke="#FFFFFF" stroke-width="1.6995" stroke-miterlimit="10" d="M581.058,171.875h33.419
		l28.468,4.333l1.388,0.482l13.396-51.238l-45.109-4.943h-36.377v51.366H581.058z"/>
	<path id="C-D" fill="#666666" stroke="#FFFFFF" stroke-width="1.6995" stroke-miterlimit="10" d="M501.153,120.509h75.09v51.366
		h-75.09V120.509z"/>
	<path id="C-A" fill="#666666" stroke="#FFFFFF" stroke-width="1.6995" stroke-miterlimit="10" d="M305.041,138.459l-31.563,17.328
		l23.209,44.252l27.63-12.434l30.234-10.158l2.441-0.361l-13.699-51.188L305.041,138.459z"/>
	<path id="C-F" fill="#666666" stroke="#FFFFFF" stroke-width="1.6995" stroke-miterlimit="10" d="M669.556,185.491l28.47,12.997
		l6.187,4.332l29.708-44.558l-37.135-19.185l-38.986-13.616l-0.069-0.008l-13.396,51.239L669.556,185.491z"/>
	<path id="C-B" fill="#666666" stroke="#FFFFFF" stroke-width="1.6995" stroke-miterlimit="10" d="M426.014,171.889l-0.351-51.38
		h-33.358l-45.797,4.333l-3.212,1.053l13.7,51.188l30.976-4.589L426.014,171.889z"/>
	<path id="C-C" fill="#666666" stroke="#FFFFFF" stroke-width="1.6995" stroke-miterlimit="10" d="M426.96,171.875h74.194v-51.366
		h-75.492l0.351,51.38L426.96,171.875z"/>
	<path id="CHASE_SUITE_A" fill="#666666" stroke="#FFFFFF" stroke-width="1.6995" stroke-miterlimit="10" d="M704.215,202.822
		L732,224.029l25.029,23.001l61.092-52.013l0,0c0,0-35.258-38.327-71.229-58.919l-12.971,22.167L704.215,202.822z"/>
	<path id="CHASE_SUITE_B" fill="#666666" stroke="#FFFFFF" stroke-width="1.6995" stroke-miterlimit="10" d="M732.184,547.164
		l-25.725,18.607l40.506,69.4c0,0,41.747-23.461,68.547-55.595l-59.934-55.808L732.184,547.164z"/>
	<path id="_x32_14_1_" fill="#666666" stroke="#FFFFFF" stroke-width="1.6995" stroke-miterlimit="10" d="M840.504,223.455
		l76.663-49.92c-25.698-39.829-62.425-73.076-62.425-73.076l-61.479,69.677C793.263,170.136,821.864,195.767,840.504,223.455z"/>
	<path id="_x32_15_1_" fill="#666666" stroke="#FFFFFF" stroke-width="1.6995" stroke-miterlimit="10" d="M871.621,281.033
		l83.409-33.669c-15.622-41.179-37.861-73.825-37.861-73.825l-76.663,49.92C840.506,223.46,858.076,248.235,871.621,281.033z"/>
	<path id="_x32_16_1_" fill="#666666" stroke="#FFFFFF" stroke-width="1.6995" stroke-miterlimit="10" d="M871.623,281.021
		c0,0,13.572,33.074,18.245,69.66l87.981-9.603c-3.689-45.555-22.816-93.726-22.816-93.726L871.623,281.021z"/>
	<path id="_x32_17_1_" fill="#666666" stroke="#FFFFFF" stroke-width="1.6995" stroke-miterlimit="10" d="M892.065,385.098
		c0,0,0.143,16.438-2.041,33.393l88.05,7.838c2.441-19.055,2.228-41.555,2.228-41.555c0-14.769-2.456-43.68-2.456-43.68
		l-87.983,9.603C889.862,350.694,892.065,370.187,892.065,385.098z"/>
	<path id="_x32_18_1_" fill="#666666" stroke="#FFFFFF" stroke-width="1.6995" stroke-miterlimit="10" d="M872.41,488.192
		l82.692,33.803c17.017-42.397,22.976-95.67,22.976-95.67l-88.049-7.839C887.141,451.734,872.41,488.192,872.41,488.192z"/>
	<path id="_x32_19_1_" fill="#666666" stroke="#FFFFFF" stroke-width="1.6995" stroke-miterlimit="10" d="M840.354,548.413
		l76.512,48.042c19.932-27.809,38.238-74.461,38.238-74.461l-82.694-33.803C872.41,488.191,859.752,520.732,840.354,548.413z"/>
	<path id="_x32_20_1_" fill="#666666" stroke="#FFFFFF" stroke-width="1.6995" stroke-miterlimit="10" d="M793.272,601.494
		l62.017,67.084c36.206-32.543,61.577-72.121,61.577-72.121l-76.514-48.042C840.354,548.416,816.402,582.457,793.272,601.494z"/>
	<path id="_x32_21_1_" fill="#666666" stroke="#FFFFFF" stroke-width="1.6995" stroke-miterlimit="10" d="M739.602,639.379
		l46.933,79.42c33.156-17.92,68.757-50.221,68.757-50.221l-62.017-67.084C793.274,601.493,765.186,625.681,739.602,639.379z"/>
	<path id="_x32_22_1_" fill="#666666" stroke="#FFFFFF" stroke-width="1.6995" stroke-miterlimit="10" d="M673.473,666.451
		l24.763,89.146c45.438-11.688,88.298-36.796,88.298-36.796l-46.932-79.42C739.602,639.381,707.407,657.236,673.473,666.451z"/>
	<path id="_x32_23_1_" fill="#666666" stroke="#FFFFFF" stroke-width="1.6995" stroke-miterlimit="10" d="M608.218,677.968
		l4.265,91.099c40.011-1.275,85.75-13.471,85.75-13.471l-24.764-89.146C673.469,666.45,638.97,676.16,608.218,677.968z"/>
	<path id="_x32_24_1_" fill="#666666" stroke="#FFFFFF" stroke-width="1.6995" stroke-miterlimit="10" d="M579.133,679.123h-38.646
		l-2.306,90.313h57.461c0,0,11.257-0.13,16.843-0.369l-4.264-91.099C598.717,678.719,579.133,679.123,579.133,679.123z"/>
	<path id="_x32_27_1_" fill="#666666" stroke="#FFFFFF" stroke-width="1.6995" stroke-miterlimit="10" d="M328.887,666.944
		l-25.591,88.439c40.836,11.675,85.969,13.653,85.969,13.653l4.692-91.141C393.958,677.896,358.679,675.471,328.887,666.944z"/>
	<path id="_x32_28_1_" fill="#666666" stroke="#FFFFFF" stroke-width="1.6995" stroke-miterlimit="10" d="M261.523,640.56
		l-45.395,78.479c40.104,23.433,87.166,36.345,87.166,36.345l25.591-88.439C328.885,666.944,289.629,656.006,261.523,640.56z"/>
	<path id="_x32_29_1_" fill="#666666" stroke="#FFFFFF" stroke-width="1.6995" stroke-miterlimit="10" d="M206.468,602.228
		l-58.941,66.907c27.917,26.066,68.601,49.904,68.601,49.904l45.395-78.479C261.523,640.561,228.616,622.563,206.468,602.228z"/>
	<path id="_x32_30_1_" fill="#666666" stroke="#FFFFFF" stroke-width="1.6995" stroke-miterlimit="10" d="M159.227,547.459
		l-74.755,47.643c21.572,35.707,63.055,74.033,63.055,74.033l58.941-66.906C206.468,602.228,175.093,573.847,159.227,547.459z"/>
	<path id="_x32_31_1_" fill="#666666" stroke="#FFFFFF" stroke-width="1.6995" stroke-miterlimit="10" d="M130.535,490.142
		l-83.244,32.271c12.042,34.43,37.186,72.691,37.186,72.691l74.754-47.643C159.229,547.461,139.036,516.272,130.535,490.142z"/>
	<path id="_x32_32_1_" fill="#666666" stroke="#FFFFFF" stroke-width="1.6995" stroke-miterlimit="10" d="M114.057,417.895
		l-32.508,1.78c1.162,14.26,2.995,26.729,5.298,36.37l-55.828,12.291c4.119,18.565,9.581,36.625,16.271,54.076l83.244-32.271
		C122.2,467.33,116.637,443.121,114.057,417.895z"/>
	<path id="_x32_01_1_" fill="#666666" stroke="#FFFFFF" stroke-width="1.6995" stroke-miterlimit="10" d="M81.336,350.591
		c-0.765,10.304-1.184,21.48-1.184,33.156c0,12.732,0.499,24.869,1.399,35.927l32.508-1.78c-1.102-10.763-1.679-21.699-1.679-32.799
		c0-11.338,0.614-22.465,1.781-33.37L81.336,350.591z"/>
	<path id="_x32_02_1_" fill="#666666" stroke="#FFFFFF" stroke-width="1.6995" stroke-miterlimit="10" d="M47.284,247.156
		c-7.522,19.624-13.49,40.017-17.743,61.032l55.634,11.186c-1.657,8.912-2.974,19.501-3.843,31.218l32.824,1.134
		c2.643-24.71,8.196-48.255,16.38-70.357L47.284,247.156z"/>
	<path id="_x32_03_1_" fill="#666666" stroke="#FFFFFF" stroke-width="1.6995" stroke-miterlimit="10" d="M159.962,223.576
		l-74.52-50.635c0,0-26.051,40.107-38.156,74.212l83.252,34.212C139.791,254.444,159.962,223.576,159.962,223.576z"/>
	<path id="_x32_04_1_" fill="#666666" stroke="#FFFFFF" stroke-width="1.6995" stroke-miterlimit="10" d="M208.229,168.491
		l-61.115-67.706c-31.012,26.842-61.669,72.158-61.669,72.158l74.52,50.635C159.964,223.578,183.341,189.122,208.229,168.491z"/>
	<path id="_x32_05_1_" fill="#666666" stroke="#FFFFFF" stroke-width="1.6995" stroke-miterlimit="10" d="M262.757,130.575
		L216.85,50.081c-35.422,19.161-69.736,50.704-69.736,50.704l61.114,67.706C208.229,168.491,234.548,145.333,262.757,130.575z"/>
	<path id="_x32_06_1_" fill="#666666" stroke="#FFFFFF" stroke-width="1.6995" stroke-miterlimit="10" d="M328.768,103.99
		l-23.635-90.35c-41.396,10.375-88.287,36.44-88.287,36.44l45.906,80.494C262.752,130.574,296.004,112.314,328.768,103.99z"/>
	<path id="PRESIDENTS_SUITES" fill="#666666" stroke="#FFFFFF" stroke-width="1.6995" stroke-miterlimit="10" d="M739.464,131.803
		l-20.409-10.468c-63.377-31.002-139.926-30.269-139.926-30.269H425.314c0,0-78.945-1.384-142.613,29.621l-22.117,11.051
		l12.893,24.046l20.336-11.165l11.226-6.164l41.465-13.615l45.797-4.331h220.318l45.178,4.951l38.988,13.615l10.799,5.58
		l26.334,13.605l12.971-22.168L739.464,131.803z"/>
	<path id="PRESIDENTS_SUITES_1_" fill="#666666" stroke="#FFFFFF" stroke-width="1.6995" stroke-miterlimit="10" d="
		M746.871,634.983l-14.453-24.731l-27.416,15.919l-1.858,1.079l-26.159,8.408l-39.706,10.744l-33.166,4.673H388.768h-26.625
		l-34.567-6.541l-28.495-11.21l-6.552-3.772l-27.19-15.611l-6.23,8.81l9.876,6.421l-7.46,11.391l19.008,9.313
		c74.298,32.414,144.784,29.245,144.784,29.245h153.814c0,0,72.323,1.867,139.753-29.304l-0.087-0.148l20.804-10.292
		L746.871,634.983z"/>
	<path id="LA_1_" fill="#666666" stroke="#FFFFFF" stroke-width="1.6995" stroke-miterlimit="10" d="M732.422,610.25l-20.426-34.994
		l-26.494,10.904l18.769,40.437L732.422,610.25z"/>
	<path id="LB_1_" fill="#666666" stroke="#FFFFFF" stroke-width="1.6995" stroke-miterlimit="10" d="M676.158,635.885l0.83-0.227
		l26.16-8.408l1.123-0.653l-18.769-40.435l-23.229,9.559L676.158,635.885z"/>
	<path id="LC_1_" fill="#666666" stroke="#FFFFFF" stroke-width="1.6995" stroke-miterlimit="10" d="M658.302,597.354l-21.238,6.118
		l8.123,40.789l30.971-8.378l-13.885-40.164L658.302,597.354z"/>
	<path id="LD_1_" fill="#666666" stroke="#FFFFFF" stroke-width="1.6995" stroke-miterlimit="10" d="M630.742,605.293l-18.26,2.884
		v41.716l24.799-3.492l7.905-2.14l-8.123-40.789L630.742,605.293z"/>
	<path id="LE_1_" fill="#666666" stroke="#FFFFFF" stroke-width="1.6995" stroke-miterlimit="10" d="M604.114,609.498h-28.785
		v41.574h28.785l8.366-1.18v-41.716L604.114,609.498z"/>
	<path id="LF_1_" fill="#666666" stroke="#FFFFFF" stroke-width="1.6995" stroke-miterlimit="10" d="M540.485,609.503h34.845v41.574
		h-34.845V609.503z"/>
	<path id="LG_1_" fill="#666666" stroke="#FFFFFF" stroke-width="1.6995" stroke-miterlimit="10" d="M502.989,609.503h37.494v41.574
		h-37.494V609.503z"/>
	<path id="LH_1_" fill="#666666" stroke="#FFFFFF" stroke-width="1.6995" stroke-miterlimit="10" d="M467.172,609.503h35.816v41.574
		h-35.816V609.503z"/>
	<path id="LI_1_" fill="#666666" stroke="#FFFFFF" stroke-width="1.6995" stroke-miterlimit="10" d="M432.072,609.503h35.1v41.574
		h-35.1V609.503z"/>
	<path id="LJ_1_" fill="#666666" stroke="#FFFFFF" stroke-width="1.6995" stroke-miterlimit="10" d="M393.957,609.503h38.118v41.574
		h-38.118V609.503z"/>
	<path id="LK_1_" fill="#666666" stroke="#FFFFFF" stroke-width="1.6995" stroke-miterlimit="10" d="M387.368,609.499l-18.878-1.382
		l-6.818,42.867l0.471,0.089h26.626h5.187v-41.574H387.368z"/>
	<path id="LL_1_" fill="#666666" stroke="#FFFFFF" stroke-width="1.6995" stroke-miterlimit="10" d="M368.217,608.1l-23.823-6.539
		l-1.378-0.502l-13.16,43.907l31.818,6.021l6.819-42.867L368.217,608.1z"/>
	<path id="LM_1_" fill="#666666" stroke="#FFFFFF" stroke-width="1.6995" stroke-miterlimit="10" d="M334.117,597.822l-10.248-4.533
		h0.001L330.325,581h-9.379l-21.225,52.576l27.855,10.959l2.278,0.431l13.16-43.907L334.117,597.822z"/>
	<path id="LN_1_" fill="#666666" stroke="#FFFFFF" stroke-width="1.6995" stroke-miterlimit="10" d="M318.736,580.996
		l-21.355-12.363l-6.965,9.851h-0.002l-25.054,35.428l33.725,19.411l0.638,0.252l21.225-52.578H318.736z"/>
	<path id="SOUTHWEST_AIRLINES_FLIGHT_DECK" fill="#666666" stroke="#FFFFFF" stroke-width="1.6995" stroke-miterlimit="10" d="
		M273.479,155.781l-12.893-24.046c0,0-23.498,13.235-44.887,30.413c-14.123,12.033-32.535,31.319-32.535,31.319l55.339,51.639
		l10.106-10.393l25.358-21.12l22.353-13.741L273.479,155.781z"/>
	<path id="KIA_MOTORS_TERRACE" fill="#666666" stroke="#FFFFFF" stroke-width="1.6995" stroke-miterlimit="10" d="M297.292,568.982
		l-28.161-17.246l-27.183-28.082l-61.414,52.164v0.002c10.612,12.366,35.216,34.291,35.216,34.291
		c13.995,11.404,45.748,30.438,45.748,30.438l7.485-11.379l-9.876-6.42L297.292,568.982z"/>
	<path id="F3_1_" fill="#666666" stroke="#FFFFFF" stroke-width="1.6995" stroke-miterlimit="10" d="M436.735,360.04v51.058h30.796
		V360.04H436.735z"/>
	<path id="F6_1_" fill="#666666" stroke="#FFFFFF" stroke-width="1.6995" stroke-miterlimit="10" d="M467.548,360.04v51.068h70.55
		V360.04H467.548z"/>
	<path id="F4_1_" fill="#666666" stroke="#FFFFFF" stroke-width="1.6995" stroke-miterlimit="10" d="M314.125,304.75v27.784
		c1.261,0.784,2.491,1.612,3.69,2.482c3.016,2.19,5.831,4.644,8.409,7.326h56.612v17.697h84.7v-55.29H314.125z"/>
	<path id="F7_1_" fill="#666666" stroke="#FFFFFF" stroke-width="1.6995" stroke-miterlimit="10" d="M467.548,304.755v55.285
		h159.084v-55.285H467.548z"/>
	<path id="F2_1_" fill="#666666" stroke="#FFFFFF" stroke-width="1.6995" stroke-miterlimit="10" d="M382.836,411.098v18.06h-56.604
		c-0.147,0.153-0.293,0.302-0.44,0.453c-3.493,3.563-7.409,6.712-11.667,9.364v28.423h153.412v-56.3H382.836z"/>
	<path id="F5_1_" fill="#666666" stroke="#FFFFFF" stroke-width="1.6995" stroke-miterlimit="10" d="M467.548,411.107v56.279
		h159.084v-56.279H467.548z"/>
</g>
<g>
	<path id="stage_1_" d="M261.486,333.96v103.588h19.549c26.085,0,47.667-19.282,51.267-44.372h23.408v25.113h16.248v-25.113h35.325
		c2.252,2.525,5.532,4.114,9.183,4.114c6.795,0,12.304-5.509,12.304-12.305c0-6.795-5.509-12.305-12.304-12.305
		c-3.651,0-6.93,1.59-9.183,4.115h-35.325v-23.577h-16.248v23.577h-23.653c-4.244-24.336-25.472-42.835-51.022-42.835H261.486z"/>
	<text transform="matrix(0 -1 1 0 297.293 420.1387)" fill="#FFFFFF" font-family="'Arial-BoldMT'" font-size="19.6184">STAGE</text>
	<path fill="#CCCCCC" d="M599.102,372.352h27.536v26.439h-27.536V372.352z"/>
	<path fill="#CCCCCC" d="M546.222,372.352h45.489v26.439h-45.489V372.352z"/>
	<text transform="matrix(1 0 0 1 551.5371 393.1133)" fill="#FFFFFF" font-family="'Arial-BoldMT'" font-size="19.6145">MIX</text>
	<text transform="matrix(1 0 0 1 610.1914 383.5229)" fill="#FFFFFF" font-family="'Arial-BoldMT'" font-size="7.6858">C</text>
	<text transform="matrix(1 0 0 1 599.7588 392.4727)" fill="#FFFFFF" font-family="'Arial-BoldMT'" font-size="7.6858">STAGE</text>
</g>
</svg>
